<svg id="visual" viewBox="0 0 900 600" width="900" height="600" xmlns="http://www.w3.org/2000/svg" xmlns:xlink="http://www.w3.org/1999/xlink" version="1.1"><rect x="0" y="0" width="900" height="600" fill="#001f36"></rect><defs><linearGradient id="grad1_0" x1="33.3%" y1="0%" x2="100%" y2="100%"><stop offset="20%" stop-color="#001f36" stop-opacity="1"></stop><stop offset="80%" stop-color="#001f36" stop-opacity="1"></stop></linearGradient></defs><defs><linearGradient id="grad2_0" x1="0%" y1="0%" x2="66.7%" y2="100%"><stop offset="20%" stop-color="#001f36" stop-opacity="1"></stop><stop offset="80%" stop-color="#001f36" stop-opacity="1"></stop></linearGradient></defs><g transform="translate(900, 0)"><path d="M0 243.4C-26.8 228.9 -53.7 214.3 -85 205.1C-116.2 195.9 -152 191.9 -172.1 172.1C-192.2 152.3 -196.7 116.7 -206 85.3C-215.3 54 -229.3 27 -243.4 0L0 0Z" fill="#93C5FD"></path></g><g transform="translate(0, 600)"><path d="M0 -243.4C35.1 -243.3 70.3 -243.3 93.1 -224.8C116 -206.4 126.6 -169.6 145 -145C163.3 -120.3 189.3 -107.9 206.9 -85.7C224.6 -63.6 234 -31.8 243.4 0L0 0Z" fill="#93C5FD"></path></g></svg>
